<svg width="860" height="900" viewBox="0 0 860 900" fill="none" xmlns="http://www.w3.org/2000/svg">
<rect x="-2.41797" width="862.418" height="917.207" fill="url(#paint0_linear_1_138)"/>
<path d="M429.294 942.175C429.294 1098.66 304.471 1225.5 150.511 1225.5C-3.44928 1225.5 -128.272 1098.66 -128.272 942.175C-128.272 785.692 -3.44928 658.851 150.511 658.851C304.471 658.851 429.294 785.692 429.294 942.175Z" stroke="#0575E6"/>
<path d="M348.066 915.678C348.066 1072.16 223.243 1199 69.2831 1199C-84.677 1199 -209.5 1072.16 -209.5 915.678C-209.5 759.195 -84.677 632.354 69.2831 632.354C223.243 632.354 348.066 759.195 348.066 915.678Z" stroke="#0575E6"/>
<defs>
<linearGradient id="paint0_linear_1_138" x1="428.791" y1="0" x2="428.791" y2="917.207" gradientUnits="userSpaceOnUse">
<stop stop-color="#0575E6"/>
<stop offset="0.847875" stop-color="#02298A"/>
<stop offset="1" stop-color="#021B79"/>
</linearGradient>
</defs>
</svg>
